{"title":"Ikki Tousen: Xtreme Xecutor","uid":9949509,"size":880140696,"categoryP":"video","categoryS":"tv_shows","magnet":"?xt=urn:btih:5554846d142a3c7b8612cb41b4dbe7c5fb32a739&amp;dn=Ikki+Tousen%3A+Xtreme+Xecutor&amp;tr=udp%3A%2F%2Ftracker.openbittorrent.com%3A80&amp;tr=udp%3A%2F%2Fopen.demonii.com%3A1337&amp;tr=udp%3A%2F%2Ftracker.coppersurfer.tk%3A6969&amp;tr=udp%3A%2F%2Fexodus.desync.com%3A6969","seeders":1,"leechers":3,"uploader":"p7trick","files":-1,"time":1397374418,"description":"watchcartoononline\n\nIkki Tousen: Xtreme Xecutor ep 1-12 + OVA ENGLISH DUBBED\n_________________________________________________________\n\nFormat                                   : MPEG-4\nFormat profile                           : Base Media\nCodec ID                                 : isom\nFile size                                : 63.2 MiB\nDuration                                 : 23mn 42s\nOverall bit rate                         : 373 Kbps\nWriting application                      : Lavf55.0.100\n\nVideo\nID                                       : 1\nFormat                                   : AVC\nFormat/Info                              : Advanced Video Codec\nFormat profile                           : &lt;a class=&quot;__cf_email__&quot; href=&quot;/cdn-cgi/l/email-protection&quot; data-cfemail=&quot;85c7e4f6e0e9ecebe0c5c9b6abb5&quot;&gt;[email&amp;#160;protected]&lt;/a&gt;&lt;script cf-hash='f9e31' type=&quot;text/javascript&quot;&gt;\n/* &lt;![CDATA[ */!function(){try{var t=&quot;currentScript&quot;in document?document.currentScript:function(){for(var t=document.getElementsByTagName(&quot;script&quot;),e=t.length;e--;)if(t[e].getAttribute(&quot;cf-hash&quot;))return t[e]}();if(t&amp;&amp;t.previousSibling){var e,r,n,i,c=t.previousSibling,a=c.getAttribute(&quot;data-cfemail&quot;);if(a){for(e=&quot;&quot;,r=parseInt(a.substr(0,2),16),n=2;a.length-n;n+=2)i=parseInt(a.substr(n,2),16)^r,e+=String.fromCharCode(i);e=document.createTextNode(e),c.parentNode.replaceChild(e,c)}}}catch(u){}}();/* ]]&gt; */&lt;/script&gt;\nFormat settings, CABAC                   : No\nFormat settings, ReFrames                : 5 frames\nCodec ID                                 : avc1\nCodec ID/Info                            : Advanced Video Coding\nDuration                                 : 23mn 42s\nBit rate                                 : 239 Kbps\nWidth                                    : 640 pixels\nHeight                                   : 360 pixels\nDisplay aspect ratio                     : 16:9\nFrame rate mode                          : Constant\nFrame rate                               : 23.976 fps\nColor space                              : YUV\nChroma subsampling                       : 4:2:0\nBit depth                                : 8 bits\nScan type                                : Progressive\nBits/(Pixel*Frame)                       : 0.043\nStream size                              : 40.5 MiB (64%)\n\nAudio\nID                                       : 2\nFormat                                   : AAC\nFormat/Info                              : Advanced Audio Codec\nFormat profile                           : LC\nCodec ID                                 : 40\nDuration                                 : 23mn 42s\nBit rate mode                            : Constant\nBit rate                                 : 128 Kbps\nChannel(s)                               : 2 channels\nChannel positions                        : Front: L R\nSampling rate                            : 44.1 KHz\nCompression mode                         : Lossy\nStream size                              : 21.7 MiB (34%)\nLanguage                                 : English\n_________________________________________________________\n\nSummary:\nNanyou Academy, led by Sonsaku Hakufu, allied with Ryuubi Gentoku's Seito High School, have together won a resounding victory over Sousou Moutoku's Kyoushou Academy at the Battle of Chibi. However, there is no rest for the weary as a figure stirs from within the site of the battle...\n\nAt the same time, another figure stands before the gates of Kyoushou. Upon closer inspection, it turns out to be a high school girl with a ponytail, wearing a jersey and toting a rucksack. She smashes aside all Kyoushou fighters who try to stop her. Occupying the academy's P.A. room, she issues her challenge: &quot;I am Ryoushuu's Bachou Mouki! Fight me, Sousou Moutoku!&quot;\n\nThe peace won at Chibi is short-lived. Despite the recent setback, Sousou Moutoku is fast recuperating his power. In addition, a new faction arises in the form of Nanban High School.\n\nFor updates/requests:\nTwitter - @p7tricktorrent\nFacebook - /p7tricktorrent\nTPB - /user/p7trick/\nKAT - /user/iPirate7\n_________________________________________________________\n\nSEED!\n\nshare ratio:\n&quot;Scumbag = 0.1:1\nLeecher = 0.999:1\nMinimum = 1:1\nGood = 3:1\nGreat = 5:1\nAwesome = 10:1\n1337 = 100:1&quot;\t","torrent":{"xt":"urn:btih:5554846d142a3c7b8612cb41b4dbe7c5fb32a739","amp;dn":"Ikki+Tousen%3A+Xtreme+Xecutor","amp;tr":["udp%3A%2F%2Ftracker.openbittorrent.com%3A80","udp%3A%2F%2Fopen.demonii.com%3A1337","udp%3A%2F%2Ftracker.coppersurfer.tk%3A6969","udp%3A%2F%2Fexodus.desync.com%3A6969"],"infoHash":"5554846d142a3c7b8612cb41b4dbe7c5fb32a739","infoHashBuffer":{"type":"Buffer","data":[85,84,132,109,20,42,60,123,134,18,203,65,180,219,231,197,251,50,167,57]},"announce":[],"urlList":[]}}